<svg width="74" height="72" viewBox="0 0 74 72" fill="none" xmlns="http://www.w3.org/2000/svg">
<rect width="73.9618" height="72" rx="16" fill="white"/>
<g clip-path="url(#clip0_1_324)">
<path d="M45.776 22.8537L37.4226 20.0683C37.1491 19.9772 36.8535 19.9772 36.58 20.0683L28.2266 22.8537C26.8985 23.2948 25.7432 24.1433 24.9248 25.2786C24.1065 26.4139 23.6667 27.7782 23.668 29.1777V36.0003C23.668 46.0843 35.9346 51.6537 36.46 51.8857C36.6304 51.9614 36.8148 52.0005 37.0013 52.0005C37.1878 52.0005 37.3722 51.9614 37.5426 51.8857C38.068 51.6537 50.3346 46.0843 50.3346 36.0003V29.1777C50.3359 27.7782 49.8961 26.4139 49.0778 25.2786C48.2594 24.1433 47.1041 23.2948 45.776 22.8537V22.8537ZM47.668 36.0003C47.668 43.2737 39.2426 48.0443 37.0013 49.1857C34.7573 48.0483 26.3346 43.2923 26.3346 36.0003V29.1777C26.3347 28.338 26.599 27.5197 27.0901 26.8386C27.5811 26.1576 28.274 25.6483 29.0706 25.383L37.0013 22.739L44.932 25.383C45.7286 25.6483 46.4215 26.1576 46.9126 26.8386C47.4036 27.5197 47.6679 28.338 47.668 29.1777V36.0003Z" fill="#FAA31E"/>
<path d="M41.401 31.0668L35.817 36.6668L32.825 33.5468C32.705 33.4155 32.5598 33.3096 32.3982 33.2352C32.2365 33.1609 32.0616 33.1197 31.8838 33.114C31.706 33.1083 31.5288 33.1382 31.3628 33.2021C31.1967 33.2659 31.0451 33.3623 30.9169 33.4857C30.7886 33.609 30.6864 33.7567 30.6161 33.9202C30.5459 34.0837 30.5091 34.2595 30.5078 34.4374C30.5066 34.6153 30.541 34.7917 30.609 34.9561C30.677 35.1205 30.7772 35.2697 30.9037 35.3948L33.9784 38.5948C34.2077 38.8424 34.4848 39.041 34.793 39.1785C35.1013 39.316 35.4342 39.3896 35.7717 39.3948H35.8157C36.1464 39.3959 36.4741 39.3312 36.7797 39.2047C37.0852 39.0781 37.3626 38.8921 37.5957 38.6574L43.2917 32.9614C43.4161 32.8373 43.5148 32.6899 43.5823 32.5276C43.6497 32.3653 43.6845 32.1913 43.6847 32.0155C43.6849 31.8398 43.6504 31.6657 43.5833 31.5033C43.5163 31.3408 43.4178 31.1932 43.2937 31.0688C43.1695 30.9444 43.0221 30.8456 42.8598 30.7782C42.6975 30.7108 42.5235 30.676 42.3478 30.6758C42.172 30.6756 41.998 30.71 41.8355 30.7771C41.6731 30.8442 41.5254 30.9426 41.401 31.0668V31.0668Z" fill="#FAA31E"/>
</g>
<defs>
<clipPath id="clip0_1_324">
<rect width="32" height="32" fill="white" transform="translate(21 20)"/>
</clipPath>
</defs>
</svg>
