<svg width="74" height="72" viewBox="0 0 74 72" fill="none" xmlns="http://www.w3.org/2000/svg">
<rect width="73.9618" height="72" rx="16" fill="white"/>
<path d="M49.0169 28.5025C51.0277 31.6218 51.7629 35.4115 51.0671 39.0702C50.3712 42.729 48.2988 45.97 45.2881 48.1082C42.2773 50.2464 38.5641 51.1142 34.9336 50.528C31.3031 49.9418 28.0398 47.9476 25.8336 44.967C23.6274 41.9865 22.6512 38.2531 23.1115 34.5564C23.5717 30.8596 25.4324 27.4891 28.3 25.1575C31.1675 22.8258 34.8174 21.7159 38.4778 22.0622C42.1381 22.4085 45.5222 24.1839 47.9145 27.0132" stroke="#FF624E" stroke-linecap="round" stroke-linejoin="round"/>
<path d="M44.2061 33.5145C44.9138 35.3259 44.9154 37.3422 44.2107 39.1547C43.5059 40.9672 42.1475 42.4403 40.4108 43.2752C38.6741 44.1101 36.6892 44.2445 34.8584 43.651C33.0276 43.0575 31.488 41.7806 30.5517 40.0792C29.6154 38.3777 29.3525 36.3791 29.8163 34.4885C30.2801 32.5978 31.4359 30.9567 33.0494 29.8978C34.6628 28.839 36.6132 28.4416 38.505 28.7862C40.3968 29.1309 42.0886 30.1918 43.2372 31.7539" stroke="#FF624E" stroke-linecap="round" stroke-linejoin="round"/>
<path d="M47.9139 27.0139L37.1688 37.9045L34.0641 34.7579" stroke="#FF624E" stroke-linecap="round" stroke-linejoin="round"/>
</svg>
