<svg width="101" height="98" viewBox="0 0 101 98" fill="none" xmlns="http://www.w3.org/2000/svg">
<rect x="1" y="1" width="98.6158" height="96" rx="16" fill="white" fill-opacity="0.37" stroke="url(#paint0_linear_23675_82114)"/>
<rect x="13.3281" y="13" width="73.9618" height="72" rx="16" fill="white"/>
<path d="M62.181 41.1705C64.1918 44.2898 64.927 48.0794 64.2311 51.7382C63.5353 55.3969 61.4629 58.638 58.4521 60.7762C55.4414 62.9144 51.7282 63.7821 48.0977 63.1959C44.4672 62.6097 41.2038 60.6155 38.9976 57.635C36.7914 54.6544 35.8153 50.9211 36.2755 47.2243C36.7358 43.5275 38.5964 40.1571 41.464 37.8254C44.3316 35.4938 47.9814 34.3838 51.6418 34.7301C55.3022 35.0764 58.6863 36.8519 61.0786 39.6812" stroke="#FF624E" stroke-linecap="round" stroke-linejoin="round"/>
<path d="M57.3714 46.1834C58.0791 47.9947 58.0807 50.011 57.376 51.8236C56.6712 53.6361 55.3127 55.1091 53.5761 55.9441C51.8394 56.779 49.8544 56.9133 48.0236 56.3199C46.1929 55.7264 44.6532 54.4495 43.717 52.748C42.7807 51.0466 42.5178 49.0479 42.9816 47.1573C43.4454 45.2667 44.6012 43.6256 46.2146 42.5667C47.8281 41.5078 49.7785 41.1104 51.6703 41.4551C53.5621 41.7997 55.2539 42.8606 56.4025 44.4227" stroke="#FF624E" stroke-linecap="round" stroke-linejoin="round"/>
<path d="M61.0763 39.6836L50.3312 50.5743L47.2266 47.4276" stroke="#FF624E" stroke-linecap="round" stroke-linejoin="round"/>
<defs>
<linearGradient id="paint0_linear_23675_82114" x1="1" y1="1" x2="96.9653" y2="99.5802" gradientUnits="userSpaceOnUse">
<stop stop-color="#BFACE0"/>
<stop offset="1" stop-color="white" stop-opacity="0"/>
</linearGradient>
</defs>
</svg>
