<svg width="713" height="864" viewBox="0 0 713 864" fill="none" xmlns="http://www.w3.org/2000/svg">
<path d="M185.892 863.123L169.243 859.556L180.181 846.315L185.892 863.123ZM711.058 81.4153C709.007 80.2316 706.957 79.0625 704.909 77.908L706.252 75.2146C708.308 76.3741 710.367 77.5481 712.426 78.7368L711.058 81.4153ZM692.642 71.1542C688.56 68.9607 684.484 66.8247 680.416 64.7456L681.651 61.9948C685.738 64.0832 689.831 66.2287 693.931 68.4318L692.642 71.1542ZM668.234 58.6785C664.093 56.6704 659.961 54.7212 655.837 52.8301L656.959 50.0247C661.103 51.9247 665.255 53.883 669.414 55.9002L668.234 58.6785ZM643.104 47.1643C638.869 45.3371 634.643 43.5711 630.426 41.8656L631.426 39.0074C635.664 40.7213 639.91 42.4959 644.166 44.3319L643.104 47.1643ZM617.806 36.93C613.504 35.3052 609.213 33.7432 604.933 32.2434L605.804 29.3365C610.106 30.8441 614.42 32.414 618.743 34.0471L617.806 36.93ZM591.826 27.8333C587.469 26.4278 583.123 25.0866 578.791 23.8089L579.523 20.8574C583.88 22.142 588.248 23.4904 592.629 24.9033L591.826 27.8333ZM565.829 20.1655C561.369 18.9734 556.923 17.8485 552.491 16.79L553.079 13.7999C557.536 14.8643 562.007 15.9955 566.491 17.1942L565.829 20.1655ZM539.128 13.7894C534.688 12.856 530.264 11.9893 525.854 11.1883L526.29 8.16599C530.725 8.97171 535.175 9.84348 539.64 10.7822L539.128 13.7894ZM512.547 8.96196C508.001 8.26684 503.471 7.64163 498.96 7.08532L499.235 4.0387C503.774 4.59837 508.33 5.22733 512.904 5.92659L512.547 8.96196ZM485.48 5.62213C481.005 5.20265 476.548 4.85108 472.11 4.56642L472.221 1.5044C476.686 1.79081 481.171 2.14456 485.673 2.56662L485.48 5.62213ZM458.493 3.8999C453.949 3.74682 449.427 3.66406 444.925 3.65055L444.865 0.582773C449.395 0.596377 453.946 0.679663 458.518 0.833703L458.493 3.8999ZM431.487 3.8166C426.966 3.94222 422.467 4.13795 417.992 4.40265L417.759 1.33974C422.263 1.07332 426.79 0.876325 431.341 0.749896L431.487 3.8166ZM404.465 5.41832C399.98 5.82686 395.52 6.30501 391.085 6.85157L390.676 3.80469C395.139 3.25454 399.629 2.77325 404.143 2.36203L404.465 5.41832ZM377.772 8.70886C373.291 9.40723 368.838 10.1759 364.413 11.0135L363.826 7.99422C368.281 7.15101 372.764 6.37727 377.274 5.67428L377.772 8.70886ZM351.222 13.7321C346.843 14.7089 342.492 15.7538 338.171 16.8655L337.409 13.8854C341.759 12.7662 346.139 11.7143 350.547 10.731L351.222 13.7321ZM325.107 20.4559C320.783 21.7206 316.491 23.0528 312.23 24.4512L311.294 21.522C315.583 20.1142 319.904 18.773 324.257 17.4998L325.107 20.4559ZM299.539 28.8464C295.288 30.3964 291.07 32.0129 286.887 33.6946L285.781 30.8274C289.992 29.1344 294.238 27.507 298.517 25.9467L299.539 28.8464ZM274.443 38.934C270.33 40.7448 266.253 42.6194 262.212 44.5564L260.94 41.7619C265.009 39.8119 269.113 37.9248 273.254 36.1019L274.443 38.934ZM250.082 50.6135C246.076 52.6955 242.107 54.8397 238.177 57.0447L236.746 54.3332C240.702 52.1136 244.697 49.9551 248.73 47.8593L250.082 50.6135ZM226.505 63.8409C222.627 66.1817 218.79 68.5827 214.993 71.0424L213.409 68.4233C217.231 65.9474 221.093 63.5306 224.996 61.1744L226.505 63.8409ZM203.724 78.5984C200.009 81.1749 196.336 83.8087 192.705 86.4984L190.975 83.9804C194.629 81.2731 198.327 78.6222 202.066 76.0288L203.724 78.5984ZM181.894 94.7709C178.334 97.5844 174.817 100.453 171.344 103.375L169.476 100.966C172.971 98.0253 176.51 95.1384 180.094 92.3067L181.894 94.7709ZM161.063 112.299C157.671 115.335 154.325 118.423 151.027 121.562L149.028 119.27C152.348 116.111 155.715 113.003 159.128 109.948L161.063 112.299ZM141.27 131.131C138.065 134.37 134.908 137.659 131.799 140.995L129.677 138.827C132.806 135.469 135.983 132.16 139.209 128.9L141.27 131.131ZM122.604 151.163C119.588 154.599 116.622 158.082 113.706 161.61L111.471 159.572C114.405 156.022 117.39 152.517 120.424 149.059L122.604 151.163ZM105.111 172.327C102.294 175.946 99.5298 179.609 96.8173 183.313L94.4759 181.411C97.2053 177.683 99.9874 173.998 102.821 170.356L105.111 172.327ZM88.8376 194.551C86.2305 198.338 83.6766 202.166 81.1767 206.032L78.7376 204.272C81.253 200.382 83.8229 196.53 86.4462 192.719L88.8376 194.551ZM73.8404 217.748C71.4496 221.691 69.1137 225.671 66.8335 229.688L64.3049 228.075C66.5993 224.034 68.9497 220.028 71.3555 216.061L73.8404 217.748ZM60.1617 241.844C57.9956 245.929 55.8861 250.047 53.8341 254.199L51.2244 252.739C53.2892 248.562 55.4119 244.417 57.5915 240.307L60.1617 241.844ZM47.8514 266.752C45.9154 270.968 44.0378 275.215 42.2194 279.493L39.5373 278.191C41.367 273.887 43.2563 269.613 45.2044 265.371L47.8514 266.752ZM36.9498 292.396C35.2529 296.726 33.616 301.084 32.0398 305.469L29.2939 304.331C30.8799 299.918 32.5271 295.532 34.2346 291.175L36.9498 292.396ZM27.4959 318.702C26.0457 323.129 24.657 327.581 23.3306 332.058L20.5297 331.087C21.8645 326.582 23.262 322.101 24.7213 317.646L27.4959 318.702ZM19.5391 345.557C18.3385 350.078 17.2011 354.621 16.1277 359.185L13.281 358.386C14.3613 353.793 15.5059 349.221 16.7141 344.671L19.5391 345.557ZM13.1094 372.894C12.1674 377.484 11.2899 382.092 10.4777 386.719L7.59486 386.096C8.41232 381.44 9.29544 376.802 10.2434 372.183L13.1094 372.894ZM8.23884 400.643C7.56159 405.279 6.94978 409.932 6.40433 414.599L3.49522 414.156C4.04424 409.459 4.65999 404.776 5.34161 400.11L8.23884 400.643ZM4.9677 428.643C4.55598 433.335 4.21129 438.041 3.93459 442.758L1.00943 442.499C1.28796 437.751 1.63487 433.014 2.04929 428.291L4.9677 428.643ZM3.31189 456.848C3.17191 461.556 3.09975 466.273 3.09628 471L0.165613 470.926C0.169112 466.168 0.241748 461.419 0.382678 456.681L3.31189 456.848ZM3.2925 485.199C3.42573 489.894 3.6271 494.596 3.89736 499.304L0.972017 499.416C0.699967 494.677 0.497289 489.944 0.363133 485.218L3.2925 485.199ZM4.9157 513.445C5.32453 518.163 5.80312 522.887 6.35223 527.613L3.4431 527.913C2.89039 523.155 2.40864 518.4 1.99705 513.651L4.9157 513.445ZM8.18476 541.615C8.86453 546.283 9.61373 550.953 10.4331 555.623L7.55101 556.108C6.72624 551.407 5.97208 546.707 5.2878 542.008L8.18476 541.615ZM13.1025 569.634C14.0485 574.234 15.0635 578.833 16.148 583.431L13.3038 584.1C12.2121 579.472 11.1904 574.842 10.238 570.212L13.1025 569.634ZM19.602 597.181C20.8231 601.762 22.1141 606.34 23.4759 610.913L20.6797 611.763C19.3091 607.16 18.0096 602.552 16.7805 597.941L19.602 597.181ZM27.7058 624.41C29.1747 628.874 30.712 633.332 32.3184 637.783L29.5798 638.808C27.9631 634.328 26.4158 629.841 24.9373 625.348L27.7058 624.41ZM37.3452 651.116C39.0692 655.5 40.8612 659.876 42.722 664.243L40.0501 665.437C38.1775 661.042 36.374 656.638 34.639 652.227L37.3452 651.116ZM48.4227 677.124C50.39 681.409 52.4248 685.685 54.5275 689.949L51.9299 691.305C49.814 687.014 47.7666 682.712 45.7868 678.4L48.4227 677.124ZM61.0133 702.66C63.1811 706.768 65.4132 710.865 67.7103 714.951L65.1936 716.46C62.8826 712.35 60.6368 708.228 58.4557 704.094L61.0133 702.66ZM74.7969 727.17C77.2243 731.231 79.7174 735.279 82.2765 739.313L79.8467 740.968C77.2726 736.91 74.7648 732.838 72.3228 728.753L74.7969 727.17ZM89.9476 751.067C92.5373 754.926 95.1888 758.772 97.9026 762.602L95.5632 764.392C92.8339 760.54 90.1672 756.672 87.5626 752.791L89.9476 751.067ZM106.232 774.05C109.056 777.831 111.943 781.597 114.893 785.347L112.648 787.264C109.682 783.493 106.78 779.707 103.939 775.904L106.232 774.05ZM123.592 796.138C126.55 799.72 129.567 803.286 132.643 806.836L130.494 808.867C127.401 805.299 124.368 801.714 121.394 798.114L123.592 796.138ZM142.05 817.434C145.186 820.884 148.379 824.318 151.63 827.735L149.578 829.874C146.31 826.44 143.101 822.989 139.949 819.521L142.05 817.434ZM161.273 837.647C164.542 840.934 167.867 844.204 171.247 847.456L169.291 849.692C165.895 846.424 162.554 843.138 159.269 839.835L161.273 837.647Z" fill="#D1D3E7"/>
</svg>
