<svg width="74" height="72" viewBox="0 0 74 72" fill="none" xmlns="http://www.w3.org/2000/svg">
<rect width="73.9618" height="72" rx="16" fill="white"/>
<path d="M23.6667 29.3333V25.3333C23.6667 24.6 23.928 23.972 24.4507 23.4493C24.9724 22.9276 25.6 22.6667 26.3333 22.6667H30.3333V25.3333H26.3333V29.3333H23.6667ZM30.3333 49.3333H26.3333C25.6 49.3333 24.9724 49.0724 24.4507 48.5507C23.928 48.028 23.6667 47.4 23.6667 46.6667V42.6667H26.3333V46.6667H30.3333V49.3333ZM43.6667 49.3333V46.6667H47.6667V42.6667H50.3333V46.6667C50.3333 47.4 50.0724 48.028 49.5507 48.5507C49.028 49.0724 48.4 49.3333 47.6667 49.3333H43.6667ZM47.6667 29.3333V25.3333H43.6667V22.6667H47.6667C48.4 22.6667 49.028 22.9276 49.5507 23.4493C50.0724 23.972 50.3333 24.6 50.3333 25.3333V29.3333H47.6667ZM39 32.6667C38.2667 32.6667 37.6391 32.4053 37.1173 31.8827C36.5947 31.3609 36.3333 30.7333 36.3333 30C36.3333 29.2667 36.5947 28.6391 37.1173 28.1173C37.6391 27.5947 38.2667 27.3333 39 27.3333C39.7333 27.3333 40.3613 27.5947 40.884 28.1173C41.4058 28.6391 41.6667 29.2667 41.6667 30C41.6667 30.7333 41.4058 31.3609 40.884 31.8827C40.3613 32.4053 39.7333 32.6667 39 32.6667V32.6667ZM38.0667 44H32.7333L34.0667 37.2L31.6667 38.1333V42.6667H29V36.4L34.2667 34.1333C35.0444 33.8 35.6169 33.5836 35.984 33.484C36.3502 33.3836 36.6889 33.3333 37 33.3333C37.4667 33.3333 37.9 33.4556 38.3 33.7C38.7 33.9444 39.0222 34.2667 39.2667 34.6667L40.6 36.8C41.1778 37.7333 41.9609 38.5 42.9493 39.1C43.9387 39.7 45.0667 40 46.3333 40V42.6667C44.8667 42.6667 43.4947 42.3609 42.2173 41.7493C40.9391 41.1387 39.8667 40.3333 39 39.3333L38.0667 44Z" fill="#FAA31E"/>
</svg>
