<svg width="44" height="44" viewBox="0 0 44 44" fill="none" xmlns="http://www.w3.org/2000/svg">
<g clip-path="url(#clip0_23866_17125)">
<path d="M44 31.6861C44 41.8877 40.3892 44 26.8889 44C13.3886 44 0 27.1107 0 16.909C0 6.7074 10.9441 16.9091 24.4444 16.9091C37.9447 16.9091 44 21.4845 44 31.6861Z" fill="#BFACE0"/>
<path d="M44 31.6861C44 41.8877 40.3892 44 26.8889 44C13.3886 44 0 27.1107 0 16.909C0 6.7074 10.9441 16.9091 24.4444 16.9091C37.9447 16.9091 44 21.4845 44 31.6861Z" fill="#EEDDC4"/>
<path fill-rule="evenodd" clip-rule="evenodd" d="M2.93333 9.53334C2.93333 9.12833 3.26166 8.8 3.66667 8.8H40.3333C40.7384 8.8 41.0667 9.12833 41.0667 9.53334V31.5333C41.0667 31.9384 40.7384 32.2667 40.3333 32.2667H3.66667C3.26166 32.2667 2.93333 31.9384 2.93333 31.5333V9.53334ZM3.66667 5.86667C1.64162 5.86667 0 7.50828 0 9.53334V31.5333C0 33.5585 1.64162 35.2 3.66667 35.2H14.882L14.1677 39.0092C13.9816 40.0022 14.7433 40.92 15.7534 40.92H28.2466C29.2567 40.92 30.0186 40.0022 29.8323 39.0092L29.118 35.2H40.3333C42.3585 35.2 44 33.5585 44 31.5333V9.53334C44 7.50828 42.3585 5.86667 40.3333 5.86667H3.66667ZM26.432 35.2H17.568L16.9905 38.28H27.0095L26.432 35.2Z" fill="#FAA31E"/>
</g>
<defs>
<clipPath id="clip0_23866_17125">
<rect width="44" height="44" fill="white"/>
</clipPath>
</defs>
</svg>
