<svg width="44" height="44" viewBox="0 0 44 44" fill="none" xmlns="http://www.w3.org/2000/svg">
<path d="M44 30.3111C44 40.5127 40.3892 42.625 26.8889 42.625C13.3886 42.625 0 25.7357 0 15.534C0 5.3324 10.9441 15.5341 24.4444 15.5341C37.9447 15.5341 44 20.1095 44 30.3111Z" fill="#D7E6DB"/>
<path fill-rule="evenodd" clip-rule="evenodd" d="M30.296 3.33265C29.7231 2.75989 28.7945 2.75988 28.2217 3.33265C27.6489 3.90541 27.6489 4.83408 28.2217 5.40684L30.1373 7.32234L15.9142 17.9895L12.6653 14.7406C12.0926 14.1679 11.1639 14.1679 10.5912 14.7406C10.0184 15.3134 10.0184 16.242 10.5912 16.8148L14.7395 20.9632L17.8508 24.0745L8.2577 33.6675C7.68493 34.2404 7.68493 35.1691 8.2577 35.7417C8.83049 36.3145 9.75912 36.3145 10.3319 35.7417L19.925 26.1486L23.0362 29.2599L27.1846 33.4082C27.7574 33.9811 28.686 33.9811 29.2588 33.4082C29.8316 32.8356 29.8316 31.9069 29.2588 31.334L26.0099 28.0852L36.6771 13.8622L38.5926 15.7777C39.1655 16.3505 40.0939 16.3505 40.6668 15.7777C41.2397 15.205 41.2397 14.2763 40.6668 13.7035L37.5554 10.5923L33.4071 6.44392L30.296 3.33265ZM18.0095 20.0848L32.2326 9.41756L34.5819 11.767L23.9147 25.99L18.0095 20.0848Z" fill="#0BAB52"/>
</svg>
