<svg width="99" height="96" viewBox="0 0 99 96" fill="none" xmlns="http://www.w3.org/2000/svg">
<rect x="0.195312" width="98.6158" height="96" rx="16" fill="#D0BEE5"/>
<rect x="12.5234" y="12" width="73.9618" height="72" rx="16" fill="white"/>
<path d="M36.668 41.3327V37.3327C36.668 36.5993 36.9293 35.9713 37.452 35.4487C37.9737 34.9269 38.6013 34.666 39.3346 34.666H43.3346V37.3327H39.3346V41.3327H36.668ZM43.3346 61.3327H39.3346C38.6013 61.3327 37.9737 61.0718 37.452 60.55C36.9293 60.0273 36.668 59.3993 36.668 58.666V54.666H39.3346V58.666H43.3346V61.3327ZM56.668 61.3327V58.666H60.668V54.666H63.3346V58.666C63.3346 59.3993 63.0737 60.0273 62.552 60.55C62.0293 61.0718 61.4013 61.3327 60.668 61.3327H56.668ZM60.668 41.3327V37.3327H56.668V34.666H60.668C61.4013 34.666 62.0293 34.9269 62.552 35.4487C63.0737 35.9713 63.3346 36.5993 63.3346 37.3327V41.3327H60.668ZM52.0013 44.666C51.268 44.666 50.6404 44.4047 50.1186 43.882C49.596 43.3602 49.3346 42.7327 49.3346 41.9993C49.3346 41.266 49.596 40.6385 50.1186 40.1167C50.6404 39.594 51.268 39.3327 52.0013 39.3327C52.7346 39.3327 53.3626 39.594 53.8853 40.1167C54.4071 40.6385 54.668 41.266 54.668 41.9993C54.668 42.7327 54.4071 43.3602 53.8853 43.882C53.3626 44.4047 52.7346 44.666 52.0013 44.666ZM51.068 55.9993H45.7346L47.068 49.1993L44.668 50.1327V54.666H42.0013V48.3993L47.268 46.1327C48.0457 45.7993 48.6182 45.5829 48.9853 45.4833C49.3515 45.3829 49.6902 45.3327 50.0013 45.3327C50.468 45.3327 50.9013 45.4549 51.3013 45.6993C51.7013 45.9438 52.0235 46.266 52.268 46.666L53.6013 48.7993C54.1791 49.7327 54.9622 50.4993 55.9506 51.0993C56.94 51.6993 58.068 51.9993 59.3346 51.9993V54.666C57.868 54.666 56.496 54.3602 55.2186 53.7487C53.9404 53.138 52.868 52.3327 52.0013 51.3327L51.068 55.9993Z" fill="#FAA31E"/>
</svg>
