<svg width="74" height="72" viewBox="0 0 74 72" fill="none" xmlns="http://www.w3.org/2000/svg">
<rect width="73.9618" height="72" rx="16" fill="white"/>
<g clip-path="url(#clip0_1_326)">
<path d="M26.3344 49.3341C25.8087 49.3354 25.288 49.2326 24.8023 49.0314C24.3167 48.8302 23.8758 48.5347 23.505 48.1621L21.4464 46.3301C21.1822 46.0945 21.0224 45.7637 21.0022 45.4104C20.9819 45.0571 21.1029 44.7102 21.3384 44.4461C21.5739 44.1819 21.9047 44.0221 22.258 44.0019C22.6113 43.9816 22.9582 44.1025 23.2224 44.3381L25.3357 46.2234C25.4567 46.3593 25.6042 46.4689 25.7691 46.5456C25.9341 46.6224 26.113 46.6645 26.2949 46.6695C26.4767 46.6745 26.6577 46.6422 26.8266 46.5747C26.9955 46.5071 27.1488 46.4057 27.277 46.2767L32.077 41.7021C32.2024 41.5745 32.3522 41.4736 32.5174 41.4051C32.6826 41.3366 32.8598 41.3021 33.0387 41.3036C33.2175 41.305 33.3942 41.3424 33.5582 41.4136C33.7223 41.4847 33.8704 41.5882 33.9937 41.7177C34.1169 41.8472 34.2129 42.0002 34.2758 42.1676C34.3388 42.335 34.3674 42.5133 34.36 42.692C34.3526 42.8707 34.3093 43.046 34.2328 43.2076C34.1562 43.3693 34.0479 43.5138 33.9144 43.6327L29.1344 48.1847C28.7661 48.5509 28.3292 48.8409 27.8488 49.0381C27.3683 49.2353 26.8537 49.3359 26.3344 49.3341ZM51.6677 48.0007H38.3344C37.9808 48.0007 37.6416 47.8603 37.3916 47.6102C37.1415 47.3602 37.001 47.021 37.001 46.6674C37.001 46.3138 37.1415 45.9746 37.3916 45.7246C37.6416 45.4745 37.9808 45.3341 38.3344 45.3341H51.6677C52.0213 45.3341 52.3605 45.4745 52.6105 45.7246C52.8606 45.9746 53.001 46.3138 53.001 46.6674C53.001 47.021 52.8606 47.3602 52.6105 47.6102C52.3605 47.8603 52.0213 48.0007 51.6677 48.0007ZM26.3344 38.6674C25.8087 38.6688 25.288 38.5659 24.8023 38.3647C24.3167 38.1636 23.8758 37.8681 23.505 37.4954L21.3917 35.3821C21.1488 35.1306 21.0144 34.7938 21.0175 34.4442C21.0205 34.0946 21.1607 33.7602 21.408 33.513C21.6552 33.2658 21.9896 33.1255 22.3392 33.1225C22.6888 33.1195 23.0256 33.2538 23.277 33.4967L25.3917 35.6101C25.6455 35.8528 25.9832 35.9882 26.3344 35.9882C26.6856 35.9882 27.0232 35.8528 27.277 35.6101L32.077 31.0354C32.3331 30.791 32.6757 30.6584 33.0295 30.6666C33.3833 30.6749 33.7194 30.8234 33.9637 31.0794C34.2081 31.3354 34.3407 31.678 34.3325 32.0318C34.3242 32.3857 34.1757 32.7217 33.9197 32.9661L29.1344 37.5181C28.7661 37.8842 28.3292 38.1742 27.8488 38.3714C27.3683 38.5686 26.8537 38.6692 26.3344 38.6674V38.6674ZM51.6677 37.3341H38.3344C37.9808 37.3341 37.6416 37.1936 37.3916 36.9435C37.1415 36.6935 37.001 36.3543 37.001 36.0007C37.001 35.6471 37.1415 35.308 37.3916 35.0579C37.6416 34.8079 37.9808 34.6674 38.3344 34.6674H51.6677C52.0213 34.6674 52.3605 34.8079 52.6105 35.0579C52.8606 35.308 53.001 35.6471 53.001 36.0007C53.001 36.3543 52.8606 36.6935 52.6105 36.9435C52.3605 37.1936 52.0213 37.3341 51.6677 37.3341ZM26.3344 28.0007C25.8087 28.0021 25.288 27.8992 24.8023 27.6981C24.3167 27.4969 23.8758 27.2014 23.505 26.8287L21.4464 24.9967C21.1822 24.7612 21.0224 24.4304 21.0022 24.0771C20.9819 23.7238 21.1029 23.3769 21.3384 23.1127C21.5739 22.8486 21.9047 22.6888 22.258 22.6685C22.6113 22.6483 22.9582 22.7692 23.2224 23.0047L25.3357 24.8901C25.4567 25.0259 25.6042 25.1356 25.7691 25.2123C25.9341 25.289 26.113 25.3312 26.2949 25.3362C26.4767 25.3412 26.6577 25.3089 26.8266 25.2414C26.9955 25.1738 27.1488 25.0724 27.277 24.9434L32.0824 20.3687C32.3408 20.1387 32.6785 20.0181 33.0241 20.0324C33.3698 20.0467 33.6963 20.1948 33.9348 20.4454C34.1733 20.696 34.3051 21.0295 34.3023 21.3755C34.2994 21.7214 34.1623 22.0527 33.9197 22.2994L29.1344 26.8514C28.7661 27.2175 28.3292 27.5075 27.8488 27.7047C27.3683 27.9019 26.8537 28.0025 26.3344 28.0007V28.0007ZM51.6677 26.6674H38.3344C37.9808 26.6674 37.6416 26.5269 37.3916 26.2769C37.1415 26.0268 37.001 25.6877 37.001 25.3341C37.001 24.9804 37.1415 24.6413 37.3916 24.3912C37.6416 24.1412 37.9808 24.0007 38.3344 24.0007H51.6677C52.0213 24.0007 52.3605 24.1412 52.6105 24.3912C52.8606 24.6413 53.001 24.9804 53.001 25.3341C53.001 25.6877 52.8606 26.0268 52.6105 26.2769C52.3605 26.5269 52.0213 26.6674 51.6677 26.6674Z" fill="#FAA31E"/>
</g>
<defs>
<clipPath id="clip0_1_326">
<rect width="32" height="32" fill="white" transform="translate(21 20)"/>
</clipPath>
</defs>
</svg>
