<svg width="132" height="132" viewBox="0 0 132 132" fill="none" xmlns="http://www.w3.org/2000/svg">
<rect x="48" width="96" height="96" rx="16" transform="rotate(30 48 0)" fill="white" fill-opacity="0.2" stroke="url(#paint0_linear_3416_136886)"/>
<rect x="52.3945" y="16.3923" width="72" height="72" rx="16" transform="rotate(30 52.3945 16.3923)" fill="white"/>
<path fill-rule="evenodd" clip-rule="evenodd" d="M56.9104 79.6519C57.0221 79.8277 57.1763 79.9733 57.3558 80.0751C57.5354 80.1769 57.738 80.2354 57.9483 80.2436L64.6875 80.4639C66.5973 80.5286 68.2435 80.3184 69.7208 79.8201C72.9354 78.7321 75.6217 76.5256 77.2805 73.609L82.7533 63.9888C83.3849 62.8814 83.2286 61.4777 82.3629 60.5004L74.6384 51.7549C74.1743 51.2265 73.5398 50.8658 72.857 50.7396L61.3911 48.5584C60.1096 48.3148 58.8247 48.8959 58.1923 50.0047L52.7236 59.6178C51.0623 62.5388 50.5384 65.9766 51.2485 69.3004C51.5725 70.8198 52.2311 72.3437 53.2653 73.9618L56.9104 79.6519ZM62.0522 67.5996C62.1479 67.9304 62.3681 68.1934 62.6487 68.3516C62.9285 68.5113 63.2665 68.5668 63.5996 68.4798L72.4308 66.1807C73.0947 66.0073 73.4777 65.3339 73.2883 64.6754C73.0974 64.016 72.4056 63.6204 71.7416 63.7938L64.1126 65.7791L63.2267 62.7162C63.0358 62.0568 62.3446 61.6634 61.6792 61.836C61.0153 62.0094 60.6323 62.6828 60.8232 63.3421L62.0522 67.5996Z" fill="#645CAA"/>
<defs>
<linearGradient id="paint0_linear_3416_136886" x1="48" y1="0" x2="144" y2="96" gradientUnits="userSpaceOnUse">
<stop stop-color="white"/>
<stop offset="1" stop-color="white" stop-opacity="0"/>
</linearGradient>
</defs>
</svg>
