<svg width="44" height="44" viewBox="0 0 44 44" fill="none" xmlns="http://www.w3.org/2000/svg">
<path d="M34.8891 6.52745C31.8274 3.97911 28.0324 2.31078 23.8341 1.92578V5.61078C27.0058 5.95911 29.9024 7.22411 32.2858 9.13078L34.8891 6.52745ZM20.1674 5.61078V1.92578C15.9691 2.29245 12.1741 3.97911 9.11245 6.52745L11.7158 9.13078C14.1408 7.17739 17.0727 5.95628 20.1674 5.61078ZM9.13078 11.7158L6.52745 9.11245C3.97911 12.1741 2.31078 15.9691 1.92578 20.1674H5.61078C5.95911 16.9958 7.22411 14.0991 9.13078 11.7158ZM38.3908 20.1674H42.0758C41.6908 15.9691 40.0224 12.1741 37.4741 9.11245L34.8708 11.7158C36.8242 14.1408 38.0453 17.0728 38.3908 20.1674ZM12.8341 22.0008L19.1408 24.8608L22.0008 31.1674L24.8608 24.8608L31.1674 22.0008L24.8608 19.1408L22.0008 12.8341L19.1408 19.1408L12.8341 22.0008Z" fill="#2E285C"/>
<path d="M22.0026 38.4988C19.2951 38.4982 16.6298 37.8284 14.2437 36.549C11.8576 35.2696 9.82471 33.4203 8.32594 31.1655H12.8359V27.4988H1.83594V38.4988H5.5026V33.5488C9.15094 38.7555 15.1643 42.1655 22.0026 42.1655C30.9309 42.1655 38.5026 36.3538 41.1426 28.3055L37.5493 27.4805C35.2943 33.8788 29.1893 38.4988 22.0026 38.4988Z" fill="#BFACE0"/>
</svg>
