<svg width="44" height="44" viewBox="0 0 44 44" fill="none" xmlns="http://www.w3.org/2000/svg">
<path d="M44 31.6861C44 41.8877 40.3892 44 26.8889 44C13.3886 44 0 27.1107 0 16.909C0 6.7074 10.9441 16.9091 24.4444 16.9091C37.9447 16.9091 44 21.4845 44 31.6861Z" fill="#BFACE0"/>
<path fill-rule="evenodd" clip-rule="evenodd" d="M2.57031 21.9997C2.57031 11.2705 11.2681 2.57275 21.9973 2.57275C32.7264 2.57275 41.4243 11.2705 41.4243 21.9997C41.4243 32.7288 32.7264 41.4267 21.9973 41.4267C11.2681 41.4267 2.57031 32.7288 2.57031 21.9997ZM21.9973 5.35941C12.8071 5.35941 5.35697 12.8095 5.35697 21.9997C5.35697 26.3178 7.00178 30.2518 9.69906 33.2092C12.2906 29.1609 16.8297 26.4734 21.9984 26.4734C27.1664 26.4734 31.705 29.1603 34.2969 33.2078C36.9932 30.2507 38.6377 26.3171 38.6377 21.9997C38.6377 12.8095 31.1873 5.35941 21.9973 5.35941ZM32.211 35.1376C30.1638 31.62 26.3558 29.2601 21.9984 29.2601C17.6405 29.2601 13.832 31.6205 11.7852 35.1388C14.6043 37.3332 18.1482 38.64 21.9973 38.64C25.8471 38.64 29.3915 37.3326 32.211 35.1376ZM15.1044 19.081C15.1044 15.274 18.1906 12.1877 21.9977 12.1877C25.8048 12.1877 28.891 15.274 28.891 19.081C28.891 22.8881 25.8048 25.9744 21.9977 25.9744C18.1906 25.9744 15.1044 22.8881 15.1044 19.081ZM21.9977 14.9744C19.7297 14.9744 17.891 16.813 17.891 19.081C17.891 21.3491 19.7297 23.1877 21.9977 23.1877C24.2658 23.1877 26.1044 21.3491 26.1044 19.081C26.1044 16.813 24.2658 14.9744 21.9977 14.9744Z" fill="#645CAA"/>
</svg>
