<svg width="74" height="72" viewBox="0 0 74 72" fill="none" xmlns="http://www.w3.org/2000/svg">
<rect width="73.9618" height="72" rx="16" fill="white"/>
<g clip-path="url(#clip0_1_325)">
<path d="M33 52.0007H22.3333C21.9797 52.0007 21.6406 51.8602 21.3905 51.6101C21.1405 51.3601 21 51.0209 21 50.6673C21 50.3137 21.1405 49.9746 21.3905 49.7245C21.6406 49.4745 21.9797 49.334 22.3333 49.334H33C33.3536 49.334 33.6928 49.4745 33.9428 49.7245C34.1929 49.9746 34.3333 50.3137 34.3333 50.6673C34.3333 51.0209 34.1929 51.3601 33.9428 51.6101C33.6928 51.8602 33.3536 52.0007 33 52.0007Z" fill="#FAA31E"/>
<path d="M30.3333 46.6667H22.3333C21.9797 46.6667 21.6406 46.5262 21.3905 46.2761C21.1405 46.0261 21 45.687 21 45.3333C21 44.9797 21.1405 44.6406 21.3905 44.3905C21.6406 44.1405 21.9797 44 22.3333 44H30.3333C30.687 44 31.0261 44.1405 31.2761 44.3905C31.5262 44.6406 31.6667 44.9797 31.6667 45.3333C31.6667 45.687 31.5262 46.0261 31.2761 46.2761C31.0261 46.5262 30.687 46.6667 30.3333 46.6667Z" fill="#FAA31E"/>
<path d="M27.6667 41.3327H22.3333C21.9797 41.3327 21.6406 41.1922 21.3905 40.9422C21.1405 40.6921 21 40.353 21 39.9993C21 39.6457 21.1405 39.3066 21.3905 39.0565C21.6406 38.8065 21.9797 38.666 22.3333 38.666H27.6667C28.0203 38.666 28.3594 38.8065 28.6095 39.0565C28.8595 39.3066 29 39.6457 29 39.9993C29 40.353 28.8595 40.6921 28.6095 40.9422C28.3594 41.1922 28.0203 41.3327 27.6667 41.3327Z" fill="#FAA31E"/>
<path d="M38.332 51.9392C37.9784 51.9549 37.633 51.8295 37.3718 51.5906C37.1106 51.3517 36.9551 51.0188 36.9393 50.6652C36.9236 50.3116 37.049 49.9662 37.2879 49.705C37.5268 49.4438 37.8597 49.2882 38.2133 49.2725C40.7366 49.0416 43.1419 48.0965 45.1474 46.548C47.1529 44.9994 48.6756 42.9114 49.5372 40.5285C50.3988 38.1457 50.5636 35.5667 50.0123 33.0936C49.461 30.6205 48.2164 28.3556 46.4244 26.5644C44.6323 24.7731 42.3669 23.5296 39.8935 22.9794C37.4201 22.4292 34.8412 22.5952 32.4588 23.4579C30.0763 24.3206 27.989 25.8443 26.4414 27.8505C24.8937 29.8568 23.9497 32.2625 23.72 34.7858C23.6882 35.138 23.5177 35.4632 23.2462 35.6897C22.9746 35.9163 22.6242 36.0257 22.272 35.9938C21.9198 35.962 21.5947 35.7916 21.3681 35.52C21.1416 35.2485 21.0322 34.898 21.064 34.5458C21.4359 30.4436 23.3755 26.6428 26.4791 23.9346C29.5827 21.2264 33.6113 19.8195 37.7261 20.0068C41.8409 20.1941 45.725 21.961 48.5698 24.9399C51.4146 27.9188 53.001 31.8801 52.9987 35.9992C53.0191 39.997 51.5339 43.856 48.8385 46.8085C46.1432 49.7611 42.4351 51.5909 38.452 51.9338C38.412 51.9378 38.3707 51.9392 38.332 51.9392V51.9392Z" fill="#FAA31E"/>
<path d="M37.0013 28C36.6477 28 36.3085 28.1405 36.0585 28.3905C35.8084 28.6406 35.668 28.9797 35.668 29.3333V36C35.668 36.3536 35.8086 36.6927 36.0586 36.9427L40.0586 40.9427C40.3101 41.1855 40.6469 41.3199 40.9965 41.3169C41.3461 41.3139 41.6805 41.1736 41.9277 40.9264C42.1749 40.6792 42.3152 40.3448 42.3182 39.9952C42.3212 39.6456 42.1868 39.3088 41.944 39.0573L38.3346 35.448V29.3333C38.3346 28.9797 38.1942 28.6406 37.9441 28.3905C37.6941 28.1405 37.3549 28 37.0013 28V28Z" fill="#FAA31E"/>
</g>
<defs>
<clipPath id="clip0_1_325">
<rect width="32" height="32" fill="white" transform="translate(21 20)"/>
</clipPath>
</defs>
</svg>
