<svg width="48" height="48" viewBox="0 0 48 48" fill="none" xmlns="http://www.w3.org/2000/svg">
<rect x="0.5" y="0.5" width="47" height="47" rx="9.5" fill="white" stroke="#DEDFEA"/>
<g clip-path="url(#clip0_23280_8762)">
<g filter="url(#filter0_d_23280_8762)">
<path d="M11 16.1992C11 15.9517 11.1271 15.7226 11.3345 15.5961L23.624 8.09974C24.0802 7.82144 24.6584 8.15852 24.6584 8.70281V39.6486C24.6584 39.923 24.3649 40.0912 24.1369 39.9475L21.0682 38.0129C20.9162 37.9172 20.8237 37.7474 20.8237 37.5646V15.4344C20.8237 15.0452 20.4207 14.7933 20.0797 14.9641C19.9034 15.0524 19.7896 15.237 19.7896 15.438V36.7261C19.7896 36.9977 19.5015 37.1663 19.2733 37.0282L16.121 35.1194C15.9647 35.0247 15.8688 34.8524 15.8688 34.6662V18.3495C15.8688 17.9882 15.4837 17.7656 15.1822 17.9527C15.0467 18.0367 14.9639 18.1872 14.9639 18.3495V33.7565C14.9639 34.0262 14.6796 34.195 14.4514 34.0609L11.3439 32.2334C11.1312 32.1083 11 31.8761 11 31.6247V16.1992Z" fill="#366EC2"/>
</g>
<g filter="url(#filter1_d_23280_8762)">
<path d="M28.4912 20.8408V14.9731C28.4912 14.3128 29.1759 13.8893 29.7456 14.1971L35.3845 17.2431C36.3957 17.7894 37.0288 18.8649 37.0288 20.0368V21.6394C37.0288 22.8006 35.9482 23.6414 34.8574 23.3291L29.1167 21.6856C28.7469 21.5798 28.4912 21.2344 28.4912 20.8408Z" fill="#366EC2"/>
</g>
<g filter="url(#filter2_d_23280_8762)">
<path d="M28.4912 34.8241V27.6048C28.4912 27.0955 28.9129 26.6932 29.4084 26.7299L35.1233 27.1531C36.1971 27.2326 37.0288 28.149 37.0288 29.2528V30.4894C37.0288 31.2794 36.5973 32.003 35.9113 32.3632L29.7368 35.6049C29.1674 35.9038 28.4912 35.4799 28.4912 34.8241Z" fill="#366EC2"/>
</g>
</g>
<defs>
<filter id="filter0_d_23280_8762" x="11" y="8" width="15.3159" height="33.6577" filterUnits="userSpaceOnUse" color-interpolation-filters="sRGB">
<feFlood flood-opacity="0" result="BackgroundImageFix"/>
<feColorMatrix in="SourceAlpha" type="matrix" values="0 0 0 0 0 0 0 0 0 0 0 0 0 0 0 0 0 0 127 0" result="hardAlpha"/>
<feOffset dx="0.994614" dy="0.994614"/>
<feGaussianBlur stdDeviation="0.331538"/>
<feComposite in2="hardAlpha" operator="out"/>
<feColorMatrix type="matrix" values="0 0 0 0 0 0 0 0 0 0 0 0 0 0 0 0 0 0 0.25 0"/>
<feBlend mode="normal" in2="BackgroundImageFix" result="effect1_dropShadow_23280_8762"/>
<feBlend mode="normal" in="SourceGraphic" in2="effect1_dropShadow_23280_8762" result="shape"/>
</filter>
<filter id="filter1_d_23280_8762" x="25.3416" y="12.7686" width="11.6877" height="10.626" filterUnits="userSpaceOnUse" color-interpolation-filters="sRGB">
<feFlood flood-opacity="0" result="BackgroundImageFix"/>
<feColorMatrix in="SourceAlpha" type="matrix" values="0 0 0 0 0 0 0 0 0 0 0 0 0 0 0 0 0 0 127 0" result="hardAlpha"/>
<feOffset dx="-2.48653" dy="-0.663076"/>
<feGaussianBlur stdDeviation="0.331538"/>
<feComposite in2="hardAlpha" operator="out"/>
<feColorMatrix type="matrix" values="0 0 0 0 0 0 0 0 0 0 0 0 0 0 0 0 0 0 0.25 0"/>
<feBlend mode="normal" in2="BackgroundImageFix" result="effect1_dropShadow_23280_8762"/>
<feBlend mode="normal" in="SourceGraphic" in2="effect1_dropShadow_23280_8762" result="shape"/>
</filter>
<filter id="filter2_d_23280_8762" x="25.5074" y="26.2302" width="11.5219" height="10.3008" filterUnits="userSpaceOnUse" color-interpolation-filters="sRGB">
<feFlood flood-opacity="0" result="BackgroundImageFix"/>
<feColorMatrix in="SourceAlpha" type="matrix" values="0 0 0 0 0 0 0 0 0 0 0 0 0 0 0 0 0 0 127 0" result="hardAlpha"/>
<feOffset dx="-2.32077" dy="0.165769"/>
<feGaussianBlur stdDeviation="0.331538"/>
<feComposite in2="hardAlpha" operator="out"/>
<feColorMatrix type="matrix" values="0 0 0 0 0 0 0 0 0 0 0 0 0 0 0 0 0 0 0.25 0"/>
<feBlend mode="normal" in2="BackgroundImageFix" result="effect1_dropShadow_23280_8762"/>
<feBlend mode="normal" in="SourceGraphic" in2="effect1_dropShadow_23280_8762" result="shape"/>
</filter>
<clipPath id="clip0_23280_8762">
<rect width="26" height="32" fill="white" transform="translate(11 8)"/>
</clipPath>
</defs>
</svg>
