<svg width="145" height="145" viewBox="0 0 145 145" fill="none" xmlns="http://www.w3.org/2000/svg">
<circle cx="142.328" cy="2.32617" r="2" transform="rotate(90 142.328 2.32617)" fill="#BFACE0"/>
<circle cx="142.328" cy="22.3262" r="2" transform="rotate(90 142.328 22.3262)" fill="#BFACE0"/>
<circle cx="142.328" cy="42.3262" r="2" transform="rotate(90 142.328 42.3262)" fill="#BFACE0"/>
<circle cx="142.328" cy="62.3262" r="2" transform="rotate(90 142.328 62.3262)" fill="#BFACE0"/>
<circle cx="142.328" cy="82.3262" r="2" transform="rotate(90 142.328 82.3262)" fill="#BFACE0"/>
<circle cx="142.328" cy="102.326" r="2" transform="rotate(90 142.328 102.326)" fill="#BFACE0"/>
<circle cx="142.328" cy="122.326" r="2" transform="rotate(90 142.328 122.326)" fill="#BFACE0"/>
<circle cx="142.328" cy="142.326" r="2" transform="rotate(90 142.328 142.326)" fill="#BFACE0"/>
<circle cx="122.328" cy="2.32617" r="2" transform="rotate(90 122.328 2.32617)" fill="#BFACE0"/>
<circle cx="122.328" cy="22.3262" r="2" transform="rotate(90 122.328 22.3262)" fill="#BFACE0"/>
<circle cx="122.328" cy="42.3262" r="2" transform="rotate(90 122.328 42.3262)" fill="#BFACE0"/>
<circle cx="122.328" cy="62.3262" r="2" transform="rotate(90 122.328 62.3262)" fill="#BFACE0"/>
<circle cx="122.328" cy="82.3262" r="2" transform="rotate(90 122.328 82.3262)" fill="#BFACE0"/>
<circle cx="122.328" cy="102.326" r="2" transform="rotate(90 122.328 102.326)" fill="#BFACE0"/>
<circle cx="122.328" cy="122.326" r="2" transform="rotate(90 122.328 122.326)" fill="#BFACE0"/>
<circle cx="122.328" cy="142.326" r="2" transform="rotate(90 122.328 142.326)" fill="#BFACE0"/>
<circle cx="102.328" cy="2.32617" r="2" transform="rotate(90 102.328 2.32617)" fill="#BFACE0"/>
<circle cx="102.328" cy="22.3262" r="2" transform="rotate(90 102.328 22.3262)" fill="#BFACE0"/>
<circle cx="102.328" cy="42.3262" r="2" transform="rotate(90 102.328 42.3262)" fill="#BFACE0"/>
<circle cx="102.328" cy="62.3262" r="2" transform="rotate(90 102.328 62.3262)" fill="#BFACE0"/>
<circle cx="102.328" cy="82.3262" r="2" transform="rotate(90 102.328 82.3262)" fill="#BFACE0"/>
<circle cx="102.328" cy="102.326" r="2" transform="rotate(90 102.328 102.326)" fill="#BFACE0"/>
<circle cx="102.328" cy="122.326" r="2" transform="rotate(90 102.328 122.326)" fill="#BFACE0"/>
<circle cx="102.328" cy="142.326" r="2" transform="rotate(90 102.328 142.326)" fill="#BFACE0"/>
<circle cx="82.3281" cy="2.32617" r="2" transform="rotate(90 82.3281 2.32617)" fill="#BFACE0"/>
<circle cx="82.3281" cy="22.3262" r="2" transform="rotate(90 82.3281 22.3262)" fill="#BFACE0"/>
<circle cx="82.3281" cy="42.3262" r="2" transform="rotate(90 82.3281 42.3262)" fill="#BFACE0"/>
<circle cx="82.3281" cy="62.3262" r="2" transform="rotate(90 82.3281 62.3262)" fill="#BFACE0"/>
<circle cx="82.3281" cy="82.3262" r="2" transform="rotate(90 82.3281 82.3262)" fill="#BFACE0"/>
<circle cx="82.3281" cy="102.326" r="2" transform="rotate(90 82.3281 102.326)" fill="#BFACE0"/>
<circle cx="82.3281" cy="122.326" r="2" transform="rotate(90 82.3281 122.326)" fill="#BFACE0"/>
<circle cx="82.3281" cy="142.326" r="2" transform="rotate(90 82.3281 142.326)" fill="#BFACE0"/>
<circle cx="62.3281" cy="2.32617" r="2" transform="rotate(90 62.3281 2.32617)" fill="#BFACE0"/>
<circle cx="62.3281" cy="22.3262" r="2" transform="rotate(90 62.3281 22.3262)" fill="#BFACE0"/>
<circle cx="62.3281" cy="42.3262" r="2" transform="rotate(90 62.3281 42.3262)" fill="#BFACE0"/>
<circle cx="62.3281" cy="62.3262" r="2" transform="rotate(90 62.3281 62.3262)" fill="#BFACE0"/>
<circle cx="62.3281" cy="82.3262" r="2" transform="rotate(90 62.3281 82.3262)" fill="#BFACE0"/>
<circle cx="62.3281" cy="102.326" r="2" transform="rotate(90 62.3281 102.326)" fill="#BFACE0"/>
<circle cx="62.3281" cy="122.326" r="2" transform="rotate(90 62.3281 122.326)" fill="#BFACE0"/>
<circle cx="62.3281" cy="142.326" r="2" transform="rotate(90 62.3281 142.326)" fill="#BFACE0"/>
<circle cx="42.3281" cy="2.32617" r="2" transform="rotate(90 42.3281 2.32617)" fill="#BFACE0"/>
<circle cx="42.3281" cy="22.3262" r="2" transform="rotate(90 42.3281 22.3262)" fill="#BFACE0"/>
<circle cx="42.3281" cy="42.3262" r="2" transform="rotate(90 42.3281 42.3262)" fill="#BFACE0"/>
<circle cx="42.3281" cy="62.3262" r="2" transform="rotate(90 42.3281 62.3262)" fill="#BFACE0"/>
<circle cx="42.3281" cy="82.3262" r="2" transform="rotate(90 42.3281 82.3262)" fill="#BFACE0"/>
<circle cx="42.3281" cy="102.326" r="2" transform="rotate(90 42.3281 102.326)" fill="#BFACE0"/>
<circle cx="42.3281" cy="122.326" r="2" transform="rotate(90 42.3281 122.326)" fill="#BFACE0"/>
<circle cx="42.3281" cy="142.326" r="2" transform="rotate(90 42.3281 142.326)" fill="#BFACE0"/>
<circle cx="22.3281" cy="2.32617" r="2" transform="rotate(90 22.3281 2.32617)" fill="#BFACE0"/>
<circle cx="22.3281" cy="22.3262" r="2" transform="rotate(90 22.3281 22.3262)" fill="#BFACE0"/>
<circle cx="22.3281" cy="42.3262" r="2" transform="rotate(90 22.3281 42.3262)" fill="#BFACE0"/>
<circle cx="22.3281" cy="62.3262" r="2" transform="rotate(90 22.3281 62.3262)" fill="#BFACE0"/>
<circle cx="22.3281" cy="82.3262" r="2" transform="rotate(90 22.3281 82.3262)" fill="#BFACE0"/>
<circle cx="22.3281" cy="102.326" r="2" transform="rotate(90 22.3281 102.326)" fill="#BFACE0"/>
<circle cx="22.3281" cy="122.326" r="2" transform="rotate(90 22.3281 122.326)" fill="#BFACE0"/>
<circle cx="22.3281" cy="142.326" r="2" transform="rotate(90 22.3281 142.326)" fill="#BFACE0"/>
<circle cx="2.32812" cy="2.32617" r="2" transform="rotate(90 2.32812 2.32617)" fill="#BFACE0"/>
<circle cx="2.32812" cy="22.3262" r="2" transform="rotate(90 2.32812 22.3262)" fill="#BFACE0"/>
<circle cx="2.32812" cy="42.3262" r="2" transform="rotate(90 2.32812 42.3262)" fill="#BFACE0"/>
<circle cx="2.32812" cy="62.3262" r="2" transform="rotate(90 2.32812 62.3262)" fill="#BFACE0"/>
<circle cx="2.32812" cy="82.3262" r="2" transform="rotate(90 2.32812 82.3262)" fill="#BFACE0"/>
<circle cx="2.32812" cy="102.326" r="2" transform="rotate(90 2.32812 102.326)" fill="#BFACE0"/>
<circle cx="2.32812" cy="122.326" r="2" transform="rotate(90 2.32812 122.326)" fill="#BFACE0"/>
<circle cx="2.32812" cy="142.326" r="2" transform="rotate(90 2.32812 142.326)" fill="#BFACE0"/>
</svg>
