<svg width="74" height="72" viewBox="0 0 74 72" fill="none" xmlns="http://www.w3.org/2000/svg">
<rect width="73.9618" height="72" rx="16" fill="white"/>
<path d="M31.6654 26.6667C31.6654 24.4613 33.46 22.6667 35.6654 22.6667V21.3333C35.6654 20.596 36.2614 20 36.9987 20C37.736 20 38.332 20.596 38.332 21.3333V22.6667H38.6894C40.112 22.6667 41.44 23.432 42.1534 24.6653C42.5227 25.304 42.304 26.1187 41.668 26.4867C41.028 26.856 40.2134 26.6373 39.8467 26.0013C39.608 25.588 39.1654 25.3333 38.6907 25.3333H35.6667C34.9307 25.3333 34.3334 25.9307 34.3334 26.6667C34.3334 27.172 34.6947 27.5973 35.1934 27.6813L39.2467 28.356C41.036 28.6547 42.3334 30.188 42.3334 32C42.3334 34.2053 40.5387 36 38.3334 36V37.3333C38.3334 38.0707 37.7374 38.6667 37 38.6667C36.2627 38.6667 35.6667 38.0707 35.6667 37.3333V36H35.3094C33.8867 36 32.5587 35.2347 31.8454 34.0013C31.476 33.3627 31.6947 32.548 32.3307 32.18C32.9694 31.808 33.7854 32.028 34.152 32.6653C34.3907 33.0787 34.8334 33.3333 35.308 33.3333H38.332C39.068 33.3333 39.6654 32.736 39.6654 32C39.6654 31.4947 39.304 31.0693 38.8054 30.9853L34.752 30.3107C32.9627 30.012 31.6654 28.4787 31.6654 26.6667V26.6667ZM46.468 24H46.332C45.5947 24 44.9987 24.596 44.9987 25.3333C44.9987 26.0707 45.5947 26.6667 46.332 26.6667H46.468C47.864 26.6667 48.9987 27.8027 48.9987 29.1973C48.9987 29.8173 48.772 30.4133 48.36 30.8787L38.6694 41.7813C38.452 42.0253 38.332 42.34 38.332 42.6667V48L35.6654 46V42.6667C35.6654 42.34 35.5454 42.0253 35.328 41.7813L25.6374 30.8773C25.224 30.4133 24.9987 29.8173 24.9987 29.1973C24.9987 27.8013 26.1347 26.6667 27.5294 26.6667H27.6654C28.4027 26.6667 28.9987 26.0707 28.9987 25.3333C28.9987 24.596 28.4027 24 27.6654 24H27.5294C24.664 24 22.332 26.332 22.332 29.1973C22.332 30.4707 22.7987 31.6973 23.6454 32.6493L32.9987 43.1733V46.6667C32.9987 47.0853 33.196 47.4813 33.532 47.7333L38.8654 51.7333C39.1 51.9107 39.3827 52 39.6654 52C39.868 52 40.0734 51.9533 40.2614 51.86C40.7134 51.6333 40.9987 51.172 40.9987 50.6667V43.1733L50.352 32.6507C51.2 31.6973 51.6654 30.4707 51.6654 29.1973C51.6654 26.332 49.3334 24 46.468 24V24Z" fill="#FAA31E"/>
</svg>
