<svg width="89" height="95" viewBox="0 0 89 95" fill="none" xmlns="http://www.w3.org/2000/svg">
<path fill-rule="evenodd" clip-rule="evenodd" d="M49.0161 65.2709C49.3947 65.3889 49.798 65.4108 50.1842 65.3377C50.5703 65.2646 50.9367 65.1003 51.2524 64.8535L61.3161 56.8828C64.1708 54.6272 66.304 52.2968 67.8374 49.7556C71.1695 44.2206 72.3573 37.7111 71.178 31.4341L67.2905 10.7282C66.8453 8.34283 64.8905 6.49629 62.4299 6.14182L40.4423 2.94208C39.1176 2.74558 37.7516 3.00231 36.6042 3.65894L17.2588 14.5964C15.097 15.8192 13.9452 18.2439 14.3909 20.6323L18.2756 41.3229C19.4566 47.6091 22.9263 53.2471 28.049 57.2011C30.3897 59.0094 33.2221 60.4126 36.7164 61.4905L49.0161 65.2709ZM41.6568 41.4397C42.2031 41.8024 42.8466 41.9135 43.4492 41.7982C44.0523 41.6858 44.6117 41.3506 44.9887 40.8145L54.9915 26.6107C55.7428 25.5421 55.4705 24.0928 54.3848 23.3694C53.2959 22.6465 51.8036 22.9229 51.0523 23.9915L42.4103 36.2607L37.3532 32.9018C36.2643 32.1789 34.7757 32.4578 34.0213 33.527C33.27 34.5957 33.5423 36.0449 34.6311 36.7678L41.6568 41.4397Z" fill="#BFACE0"/>
</svg>
