<svg width="99" height="96" viewBox="0 0 99 96" fill="none" xmlns="http://www.w3.org/2000/svg">
<rect width="98.6158" height="96" rx="16" fill="#DBC9EB"/>
<rect x="12.3281" y="12" width="73.9618" height="72" rx="16" fill="white"/>
<path d="M59.8576 50.6673C61.3107 50.6673 62.4886 49.4734 62.4886 48.0007C62.4886 46.5279 61.3107 45.334 59.8576 45.334C58.4045 45.334 57.2266 46.5279 57.2266 48.0007C57.2266 49.4734 58.4045 50.6673 59.8576 50.6673Z" fill="#FF624E"/>
<path d="M38.8107 50.6673C40.2638 50.6673 41.4417 49.4734 41.4417 48.0007C41.4417 46.5279 40.2638 45.334 38.8107 45.334C37.3576 45.334 36.1797 46.5279 36.1797 48.0007C36.1797 49.4734 37.3576 50.6673 38.8107 50.6673Z" fill="#FF624E"/>
<path d="M49.3342 61.3333C50.7872 61.3333 51.9652 60.1394 51.9652 58.6667C51.9652 57.1939 50.7872 56 49.3342 56C47.8811 56 46.7031 57.1939 46.7031 58.6667C46.7031 60.1394 47.8811 61.3333 49.3342 61.3333Z" fill="#FF624E"/>
<path d="M46.7681 43.4528L41.4798 38.0661H41.4666L41.0588 37.6395L39.1908 39.5195L44.4791 44.9195L44.4923 44.9061L44.9001 45.3328L46.7681 43.4528ZM51.8894 43.4888L57.6843 37.6328L59.5418 39.5195L53.7469 45.3768L51.8894 43.4888ZM46.7155 52.4795L44.8475 50.5995L39.546 55.9461L39.125 56.3861L40.9799 58.2661L46.2814 52.9061L46.7155 52.4795ZM59.5418 56.3995L54.2929 51.0528L53.8193 50.5861L51.9644 52.4661L57.2133 57.8128L57.6738 58.2795L59.5418 56.3995Z" fill="#FF624E"/>
<path d="M49.3342 39.9993C50.7872 39.9993 51.9652 38.8054 51.9652 37.3327C51.9652 35.8599 50.7872 34.666 49.3342 34.666C47.8811 34.666 46.7031 35.8599 46.7031 37.3327C46.7031 38.8054 47.8811 39.9993 49.3342 39.9993Z" fill="#FF624E"/>
</svg>
