<svg width="101" height="98" viewBox="0 0 101 98" fill="none" xmlns="http://www.w3.org/2000/svg">
<rect x="1.02344" y="1" width="98.6158" height="96" rx="16" fill="white" fill-opacity="0.37" stroke="url(#paint0_linear_23285_57060)"/>
<rect x="13.3516" y="13" width="73.9618" height="72" rx="16" fill="white"/>
<path d="M62.2044 41.1705C64.2152 44.2898 64.9504 48.0794 64.2546 51.7382C63.5587 55.3969 61.4863 58.638 58.4756 60.7762C55.4648 62.9144 51.7516 63.7821 48.1211 63.1959C44.4906 62.6097 41.2273 60.6155 39.0211 57.635C36.8149 54.6544 35.8387 50.9211 36.299 47.2243C36.7592 43.5275 38.6199 40.1571 41.4875 37.8254C44.355 35.4938 48.0049 34.3838 51.6653 34.7301C55.3256 35.0764 58.7097 36.8519 61.102 39.6812" stroke="#FF624E" stroke-linecap="round" stroke-linejoin="round"/>
<path d="M57.3948 46.1834C58.1025 47.9947 58.1042 50.011 57.3994 51.8236C56.6946 53.6361 55.3362 55.1091 53.5995 55.9441C51.8628 56.779 49.8779 56.9133 48.0471 56.3199C46.2163 55.7264 44.6767 54.4495 43.7404 52.748C42.8041 51.0466 42.5412 49.0479 43.005 47.1573C43.4688 45.2667 44.6246 43.6256 46.2381 42.5667C47.8515 41.5078 49.8019 41.1104 51.6937 41.4551C53.5856 41.7997 55.2773 42.8606 56.4259 44.4227" stroke="#FF624E" stroke-linecap="round" stroke-linejoin="round"/>
<path d="M61.0997 39.6836L50.3546 50.5743L47.25 47.4276" stroke="#FF624E" stroke-linecap="round" stroke-linejoin="round"/>
<defs>
<linearGradient id="paint0_linear_23285_57060" x1="1.02344" y1="1" x2="96.9888" y2="99.5802" gradientUnits="userSpaceOnUse">
<stop stop-color="#BFACE0"/>
<stop offset="1" stop-color="white" stop-opacity="0"/>
</linearGradient>
</defs>
</svg>
